<svg width="217" height="69" viewBox="0 0 217 69" fill="none" xmlns="http://www.w3.org/2000/svg">
<path d="M12.824 26.468C11.12 26.468 9.518 26.132 8.018 25.46C6.518 24.776 5.198 23.84 4.058 22.652C2.93 21.452 2.042 20.06 1.394 18.476C0.758 16.892 0.44 15.2 0.44 13.4C0.44 11.6 0.758 9.908 1.394 8.324C2.042 6.74 2.93 5.354 4.058 4.166C5.198 2.966 6.518 2.03 8.018 1.358C9.518 0.673998 11.12 0.331998 12.824 0.331998C14.864 0.331998 16.742 0.805998 18.458 1.754C20.174 2.702 21.596 3.962 22.724 5.534L19.394 7.316C18.614 6.332 17.648 5.546 16.496 4.958C15.344 4.37 14.12 4.076 12.824 4.076C11.624 4.076 10.502 4.322 9.458 4.814C8.414 5.306 7.496 5.978 6.704 6.83C5.912 7.682 5.294 8.672 4.85 9.8C4.406 10.928 4.184 12.128 4.184 13.4C4.184 14.684 4.406 15.89 4.85 17.018C5.294 18.134 5.912 19.124 6.704 19.988C7.508 20.84 8.432 21.512 9.476 22.004C10.52 22.484 11.636 22.724 12.824 22.724C14.144 22.724 15.374 22.43 16.514 21.842C17.666 21.242 18.626 20.45 19.394 19.466L22.724 21.284C21.596 22.856 20.174 24.116 18.458 25.064C16.742 26 14.864 26.468 12.824 26.468ZM33.1972 26.468C31.5412 26.468 30.0292 26.042 28.6612 25.19C27.3052 24.338 26.2192 23.198 25.4032 21.77C24.5992 20.33 24.1972 18.74 24.1972 17C24.1972 15.68 24.4312 14.45 24.8992 13.31C25.3672 12.158 26.0092 11.15 26.8252 10.286C27.6532 9.41 28.6132 8.726 29.7052 8.234C30.7972 7.742 31.9612 7.496 33.1972 7.496C34.8532 7.496 36.3592 7.922 37.7152 8.774C39.0832 9.626 40.1692 10.772 40.9732 12.212C41.7892 13.652 42.1972 15.248 42.1972 17C42.1972 18.308 41.9632 19.532 41.4952 20.672C41.0272 21.812 40.3792 22.82 39.5512 23.696C38.7352 24.56 37.7812 25.238 36.6892 25.73C35.6092 26.222 34.4452 26.468 33.1972 26.468ZM33.1972 22.724C34.1932 22.724 35.0872 22.46 35.8792 21.932C36.6712 21.404 37.2952 20.708 37.7512 19.844C38.2192 18.968 38.4532 18.02 38.4532 17C38.4532 15.956 38.2132 14.996 37.7332 14.12C37.2652 13.244 36.6352 12.548 35.8432 12.032C35.0512 11.504 34.1692 11.24 33.1972 11.24C32.2132 11.24 31.3192 11.504 30.5152 12.032C29.7232 12.56 29.0932 13.262 28.6252 14.138C28.1692 15.014 27.9412 15.968 27.9412 17C27.9412 18.068 28.1812 19.034 28.6612 19.898C29.1412 20.762 29.7772 21.452 30.5692 21.968C31.3732 22.472 32.2492 22.724 33.1972 22.724ZM52.9902 26.468C51.3342 26.468 49.8222 26.042 48.4542 25.19C47.0982 24.338 46.0122 23.198 45.1962 21.77C44.3922 20.33 43.9902 18.74 43.9902 17C43.9902 15.68 44.2242 14.45 44.6922 13.31C45.1602 12.158 45.8022 11.15 46.6182 10.286C47.4462 9.41 48.4062 8.726 49.4982 8.234C50.5902 7.742 51.7542 7.496 52.9902 7.496C54.6462 7.496 56.1522 7.922 57.5082 8.774C58.8762 9.626 59.9622 10.772 60.7662 12.212C61.5822 13.652 61.9902 15.248 61.9902 17C61.9902 18.308 61.7562 19.532 61.2882 20.672C60.8202 21.812 60.1722 22.82 59.3442 23.696C58.5282 24.56 57.5742 25.238 56.4822 25.73C55.4022 26.222 54.2382 26.468 52.9902 26.468ZM52.9902 22.724C53.9862 22.724 54.8802 22.46 55.6722 21.932C56.4642 21.404 57.0882 20.708 57.5442 19.844C58.0122 18.968 58.2462 18.02 58.2462 17C58.2462 15.956 58.0062 14.996 57.5262 14.12C57.0582 13.244 56.4282 12.548 55.6362 12.032C54.8442 11.504 53.9622 11.24 52.9902 11.24C52.0062 11.24 51.1122 11.504 50.3082 12.032C49.5162 12.56 48.8862 13.262 48.4182 14.138C47.9622 15.014 47.7342 15.968 47.7342 17C47.7342 18.068 47.9742 19.034 48.4542 19.898C48.9342 20.762 49.5702 21.452 50.3622 21.968C51.1662 22.472 52.0422 22.724 52.9902 22.724ZM68.6423 35H64.8983V8H68.6423V10.646C69.2423 9.722 70.0103 8.972 70.9463 8.396C71.8823 7.82 72.9863 7.532 74.2583 7.532C75.5663 7.532 76.7903 7.778 77.9303 8.27C79.0823 8.762 80.0903 9.446 80.9543 10.322C81.8183 11.186 82.4963 12.188 82.9883 13.328C83.4803 14.468 83.7263 15.692 83.7263 17C83.7263 18.308 83.4803 19.538 82.9883 20.69C82.4963 21.842 81.8183 22.856 80.9543 23.732C80.0903 24.596 79.0823 25.274 77.9303 25.766C76.7903 26.258 75.5663 26.504 74.2583 26.504C72.9863 26.504 71.8823 26.216 70.9463 25.64C70.0103 25.052 69.2423 24.302 68.6423 23.39V35ZM74.2223 11.15C73.1783 11.15 72.2603 11.414 71.4683 11.942C70.6763 12.47 70.0583 13.178 69.6143 14.066C69.1703 14.942 68.9483 15.92 68.9483 17C68.9483 18.08 69.1703 19.064 69.6143 19.952C70.0583 20.84 70.6763 21.548 71.4683 22.076C72.2603 22.604 73.1783 22.868 74.2223 22.868C75.2543 22.868 76.2023 22.61 77.0663 22.094C77.9303 21.566 78.6203 20.858 79.1363 19.97C79.6523 19.082 79.9103 18.092 79.9103 17C79.9103 15.932 79.6523 14.954 79.1363 14.066C78.6323 13.178 77.9483 12.47 77.0843 11.942C76.2203 11.414 75.2663 11.15 74.2223 11.15ZM16.298 40.8H20.042V66H16.298V54.372H4.904V66H1.16V40.8H4.904V50.628H16.298V40.8ZM24.3631 48H28.1071V66H24.3631V48ZM26.2711 45.39C25.6951 45.39 25.2151 45.204 24.8311 44.832C24.4471 44.46 24.2551 43.992 24.2551 43.428C24.2551 42.876 24.4471 42.414 24.8311 42.042C25.2151 41.658 25.6891 41.466 26.2531 41.466C26.8051 41.466 27.2731 41.658 27.6571 42.042C28.0411 42.414 28.2331 42.876 28.2331 43.428C28.2331 43.992 28.0411 44.46 27.6571 44.832C27.2851 45.204 26.8231 45.39 26.2711 45.39ZM32.2733 66V48H36.0173V49.908C36.6413 49.164 37.4033 48.576 38.3033 48.144C39.2153 47.712 40.1993 47.496 41.2553 47.496C42.5393 47.496 43.7213 47.808 44.8013 48.432C45.8813 49.044 46.7393 49.86 47.3753 50.88C48.0113 49.86 48.8573 49.044 49.9133 48.432C50.9813 47.808 52.1573 47.496 53.4413 47.496C54.7733 47.496 55.9853 47.82 57.0773 48.468C58.1693 49.116 59.0393 49.986 59.6873 51.078C60.3353 52.17 60.6593 53.382 60.6593 54.714V66H56.9153V55.668C56.9153 54.876 56.7233 54.15 56.3393 53.49C55.9553 52.83 55.4393 52.296 54.7913 51.888C54.1433 51.48 53.4233 51.276 52.6313 51.276C51.8393 51.276 51.1193 51.468 50.4713 51.852C49.8233 52.236 49.3073 52.758 48.9233 53.418C48.5393 54.078 48.3473 54.828 48.3473 55.668V66H44.6033V55.668C44.6033 54.828 44.4113 54.078 44.0273 53.418C43.6433 52.758 43.1213 52.236 42.4613 51.852C41.8133 51.468 41.0933 51.276 40.3013 51.276C39.5213 51.276 38.8013 51.48 38.1413 51.888C37.4933 52.296 36.9773 52.83 36.5933 53.49C36.2093 54.15 36.0173 54.876 36.0173 55.668V66H32.2733ZM64.2655 66V48H68.0095V49.908C68.6335 49.164 69.3955 48.576 70.2955 48.144C71.2075 47.712 72.1915 47.496 73.2475 47.496C74.5315 47.496 75.7135 47.808 76.7935 48.432C77.8735 49.044 78.7315 49.86 79.3675 50.88C80.0035 49.86 80.8495 49.044 81.9055 48.432C82.9735 47.808 84.1495 47.496 85.4335 47.496C86.7655 47.496 87.9775 47.82 89.0695 48.468C90.1615 49.116 91.0315 49.986 91.6795 51.078C92.3275 52.17 92.6515 53.382 92.6515 54.714V66H88.9075V55.668C88.9075 54.876 88.7155 54.15 88.3315 53.49C87.9475 52.83 87.4315 52.296 86.7835 51.888C86.1355 51.48 85.4155 51.276 84.6235 51.276C83.8315 51.276 83.1115 51.468 82.4635 51.852C81.8155 52.236 81.2995 52.758 80.9155 53.418C80.5315 54.078 80.3395 54.828 80.3395 55.668V66H76.5955V55.668C76.5955 54.828 76.4035 54.078 76.0195 53.418C75.6355 52.758 75.1135 52.236 74.4535 51.852C73.8055 51.468 73.0855 51.276 72.2935 51.276C71.5135 51.276 70.7935 51.48 70.1335 51.888C69.4855 52.296 68.9695 52.83 68.5855 53.49C68.2015 54.15 68.0095 54.876 68.0095 55.668V66H64.2655ZM103.826 66.468C102.17 66.468 100.658 66.042 99.2901 65.19C97.9341 64.338 96.8481 63.198 96.0321 61.77C95.2281 60.33 94.8261 58.74 94.8261 57C94.8261 55.68 95.0601 54.45 95.5281 53.31C95.9961 52.158 96.6381 51.15 97.4541 50.286C98.2821 49.41 99.2421 48.726 100.334 48.234C101.426 47.742 102.59 47.496 103.826 47.496C105.206 47.496 106.472 47.784 107.624 48.36C108.776 48.924 109.76 49.71 110.576 50.718C111.392 51.714 111.992 52.866 112.376 54.174C112.76 55.47 112.874 56.85 112.718 58.314H98.8401C98.9961 59.142 99.2961 59.892 99.7401 60.564C100.196 61.224 100.772 61.746 101.468 62.13C102.176 62.514 102.962 62.712 103.826 62.724C104.738 62.724 105.566 62.496 106.31 62.04C107.066 61.584 107.684 60.954 108.164 60.15L111.962 61.032C111.242 62.628 110.156 63.936 108.704 64.956C107.252 65.964 105.626 66.468 103.826 66.468ZM98.7141 55.452H108.938C108.818 54.588 108.512 53.808 108.02 53.112C107.54 52.404 106.934 51.846 106.202 51.438C105.482 51.018 104.69 50.808 103.826 50.808C102.974 50.808 102.182 51.012 101.45 51.42C100.73 51.828 100.13 52.386 99.6501 53.094C99.1821 53.79 98.8701 54.576 98.7141 55.452ZM115.453 66V39H119.197V66H115.453ZM132.864 47.496C134.616 47.496 136.206 47.922 137.634 48.774C139.074 49.626 140.22 50.772 141.072 52.212C141.924 53.64 142.35 55.23 142.35 56.982C142.35 58.29 142.104 59.52 141.612 60.672C141.12 61.812 140.436 62.82 139.56 63.696C138.696 64.56 137.688 65.238 136.536 65.73C135.396 66.222 134.172 66.468 132.864 66.468C131.604 66.468 130.5 66.18 129.552 65.604C128.616 65.016 127.848 64.266 127.248 63.354V66H123.504V39H127.248V50.61C127.848 49.686 128.616 48.936 129.552 48.36C130.5 47.784 131.604 47.496 132.864 47.496ZM132.828 62.832C133.872 62.832 134.826 62.568 135.69 62.04C136.554 61.512 137.238 60.804 137.742 59.916C138.258 59.028 138.516 58.05 138.516 56.982C138.516 55.89 138.258 54.9 137.742 54.012C137.226 53.124 136.536 52.422 135.672 51.906C134.808 51.378 133.86 51.114 132.828 51.114C131.784 51.114 130.866 51.378 130.074 51.906C129.282 52.434 128.664 53.142 128.22 54.03C127.776 54.918 127.554 55.902 127.554 56.982C127.554 58.062 127.776 59.046 128.22 59.934C128.664 60.822 129.282 61.53 130.074 62.058C130.866 62.574 131.784 62.832 132.828 62.832ZM150.802 68.016C149.578 66.828 148.582 65.532 147.814 64.128C147.046 62.712 146.482 61.194 146.122 59.574C145.762 57.954 145.582 56.232 145.582 54.408C145.582 53.508 145.66 52.524 145.816 51.456C145.972 50.388 146.2 49.308 146.5 48.216C146.8 47.124 147.16 46.086 147.58 45.102C148.012 44.118 148.498 43.248 149.038 42.492C149.578 41.736 150.166 41.172 150.802 40.8H154.546C154.006 41.232 153.484 41.826 152.98 42.582C152.476 43.326 152.008 44.178 151.576 45.138C151.144 46.098 150.76 47.112 150.424 48.18C150.088 49.248 149.824 50.316 149.632 51.384C149.44 52.44 149.338 53.448 149.326 54.408C149.35 56.292 149.602 58.08 150.082 59.772C150.574 61.452 151.21 62.994 151.99 64.398C152.782 65.79 153.634 66.996 154.546 68.016H150.802ZM158.519 66V39H162.263V66H158.519ZM166.21 68.016C167.122 66.996 167.968 65.79 168.748 64.398C169.54 62.994 170.176 61.452 170.656 59.772C171.148 58.08 171.406 56.292 171.43 54.408C171.418 53.448 171.316 52.44 171.124 51.384C170.932 50.316 170.668 49.248 170.332 48.18C169.996 47.112 169.612 46.098 169.18 45.138C168.748 44.178 168.28 43.326 167.776 42.582C167.272 41.826 166.75 41.232 166.21 40.8H169.954C170.59 41.172 171.172 41.736 171.7 42.492C172.24 43.248 172.726 44.118 173.158 45.102C173.59 46.086 173.956 47.124 174.256 48.216C174.556 49.308 174.784 50.388 174.94 51.456C175.096 52.524 175.174 53.508 175.174 54.408C175.174 56.232 174.994 57.954 174.634 59.574C174.286 61.194 173.728 62.712 172.96 64.128C172.192 65.532 171.19 66.828 169.954 68.016H166.21ZM193.512 48H197.256V66H193.494L193.35 63.39C192.822 64.314 192.108 65.058 191.208 65.622C190.308 66.186 189.246 66.468 188.022 66.468C186.702 66.468 185.46 66.222 184.296 65.73C183.132 65.226 182.106 64.53 181.218 63.642C180.342 62.754 179.658 61.734 179.166 60.582C178.674 59.418 178.428 58.17 178.428 56.838C178.428 55.554 178.668 54.348 179.148 53.22C179.628 52.08 180.294 51.084 181.146 50.232C181.998 49.38 182.982 48.714 184.098 48.234C185.226 47.742 186.432 47.496 187.716 47.496C189.024 47.496 190.176 47.796 191.172 48.396C192.18 48.984 193.014 49.74 193.674 50.664L193.512 48ZM187.932 62.85C188.988 62.85 189.912 62.592 190.704 62.076C191.496 61.548 192.108 60.84 192.54 59.952C192.984 59.064 193.206 58.08 193.206 57C193.206 55.908 192.984 54.918 192.54 54.03C192.096 53.142 191.478 52.44 190.686 51.924C189.906 51.396 188.988 51.132 187.932 51.132C186.888 51.132 185.934 51.396 185.07 51.924C184.206 52.452 183.522 53.16 183.018 54.048C182.514 54.936 182.262 55.92 182.262 57C182.262 58.092 182.52 59.082 183.036 59.97C183.564 60.846 184.254 61.548 185.106 62.076C185.97 62.592 186.912 62.85 187.932 62.85ZM200.128 59.25V48H203.872V58.332C203.872 59.136 204.07 59.868 204.466 60.528C204.862 61.188 205.39 61.716 206.05 62.112C206.71 62.496 207.436 62.688 208.228 62.688C209.032 62.688 209.758 62.496 210.406 62.112C211.066 61.716 211.588 61.188 211.972 60.528C212.368 59.868 212.566 59.136 212.566 58.332V48H216.31L216.328 66H212.584L212.566 64.056C211.954 64.8 211.192 65.388 210.28 65.82C209.368 66.252 208.39 66.468 207.346 66.468C206.014 66.468 204.802 66.144 203.71 65.496C202.618 64.848 201.748 63.978 201.1 62.886C200.452 61.794 200.128 60.582 200.128 59.25Z" fill="#E6E9EE"/>
</svg>
